<svg width="48.967773" height="43.939575" viewBox="0 0 48.9678 43.9396" fill="none" xmlns="http://www.w3.org/2000/svg" xmlns:xlink="http://www.w3.org/1999/xlink">
	<desc>
			Created with Pixso.
	</desc>
	<defs/>
	<path id="Combined Shape" d="M4.12207 32.8632C4.60547 29.7713 3.25317 26.6019 1.7981 23.6858C1.20679 22.5018 0.605225 21.3591 0.101318 20.2785C-0.00146484 20.0562 -0.0270996 19.8028 0.0292969 19.5598L0.949707 15.7027C1.03711 15.3304 1.3147 15.0306 1.67993 14.9168C3.64917 14.2963 9.93726 12.0627 10.5029 8.77954C10.5132 8.71234 10.5493 8.65546 10.5955 8.60895L15.9583 3.41266C16.092 3.28345 16.3079 3.29895 16.4263 3.44373C16.9302 4.07965 18.3337 5.49634 20.4211 4.79834L19.7734 4.14172C19.6448 4.01764 19.6499 3.81079 19.7786 3.68671L22.231 1.36005C22.2876 1.30316 22.3647 1.27216 22.447 1.27216L29.9229 1.27216C30.1904 1.27216 30.3394 1.58752 30.1699 1.79437L27.7686 4.72595C27.6504 4.87592 27.6812 5.09308 27.8406 5.19647C28.6941 5.75488 31.1877 7.39386 32.7251 8.4021C33.5068 8.914 34.5608 8.59344 34.9155 7.72479C35.3115 6.75793 35.6816 5.25336 35.6868 3.01459C35.6868 2.97839 35.6919 2.93701 35.7073 2.90082L36.7461 0.201904C36.8438 -0.0463257 37.1831 -0.0721436 37.3167 0.160522C37.8257 1.0498 38.7358 2.93701 38.7358 5.13959L39.2346 4.77765C39.3733 4.67426 39.5688 4.70526 39.6716 4.83972L40.7617 6.26672C40.8079 6.3288 40.8284 6.4115 40.8232 6.48907C40.7512 7.25946 40.5508 11.5043 44.2581 13.2054C44.3247 13.2365 44.3813 13.2881 44.4121 13.3553L48.9368 22.4552C48.9575 22.5018 48.9678 22.5483 48.9678 22.6L48.9678 26.4313C48.9678 27.0156 48.7209 27.5688 48.2839 27.9565C46.51 29.5387 41.8723 33.9283 41.5894 36.9686C41.574 37.1288 41.4402 37.2529 41.2759 37.2529L33.301 37.2529C33.2498 37.2529 33.1982 37.2426 33.1521 37.2167C32.6379 36.9376 29.9229 33.3597 29.3728 29.8903C29.3318 29.6318 29.0078 29.5336 28.8279 29.73L27.0437 31.7155C26.8792 31.9016 26.6426 32.005 26.3958 32.005C26.1233 32.005 25.8918 31.8085 25.8457 31.5397C25.6401 30.3297 24.7249 27.1655 20.8892 27.1655C18.8325 27.1655 15.6292 27.9617 12.6572 28.8614C12.6572 28.8614 9.3667 29.8954 6.93457 33.2045C6.85229 33.3182 6.71875 33.3855 6.57471 33.3855L4.56958 33.3855C4.29175 33.3855 4.08105 33.1373 4.12207 32.8632ZM39.0032 43.7676C39.574 44.1553 40.3503 43.8555 40.5198 43.1885L41.3682 39.8278C41.4351 39.564 41.2397 39.3107 40.9673 39.3107L35.26 39.3107C34.9155 39.3107 34.7253 39.7088 34.936 39.9777C36.3706 41.808 37.9543 43.0541 39.0032 43.7676Z" clip-rule="evenodd" fill="#0E8784" fill-opacity="1.000000" fill-rule="evenodd"/>
</svg>
