<svg width="51.559204" height="49.955933" viewBox="0 0 51.5592 49.9559" fill="none" xmlns="http://www.w3.org/2000/svg" xmlns:xlink="http://www.w3.org/1999/xlink">
	<desc>
			Created with Pixso.
	</desc>
	<defs/>
	<path id="Combined Shape" d="M28.2744 5.0495L23.2848 5.8819L20.79 3.38629L22.8308 0L28.2744 0.06073L28.2744 5.0495ZM22.4532 10.8707L18.1472 12.5971L12.474 7.54431L15.8004 4.21704L22.4532 10.8707ZM44.0748 32.4923L39.0852 35.8187L44.9065 38.3135L44.0748 43.3031L37.422 43.3031L33.264 49.9559L29.9376 43.3031L24.948 39.9767L22.4532 44.1347L2.49475 34.1555L0 26.6711L2.78589 23.9119L0.831543 15.8603L7.48438 8.37585L18.2952 19.1867L21.6216 15.8603L27.4429 19.1867L24.948 22.5131L21.6216 29.1659L27.4429 31.6607L29.9376 35.8187L32.4324 30.8291L29.1061 26.6711L32.4324 24.1763L35.7588 27.5027L39.0852 24.1763L44.0748 29.1659L44.0748 32.4923ZM29.4479 14.7617L26.1265 12.3459L26.7301 9.62909L32.4324 9.20831L39.9169 15.0287L38.2537 20.0183L35.7588 21.6823L33.264 20.0183L33.264 17.5235L30.7693 14.1971L29.4479 14.7617ZM50.7277 35.8187L49.0645 35.8187C48.6052 35.8187 48.2329 35.4464 48.2329 34.9871C48.2329 34.5278 48.6052 34.1555 49.0645 34.1555L50.7277 34.1555C51.1869 34.1555 51.5592 34.5278 51.5592 34.9871C51.5592 35.4464 51.1869 35.8187 50.7277 35.8187ZM49.0645 47.4611L47.4012 47.4611C46.942 47.4611 46.5697 47.0888 46.5697 46.6295C46.5697 46.1702 46.942 45.7979 47.4012 45.7979L49.0645 45.7979C49.5237 45.7979 49.896 46.1702 49.896 46.6295C49.896 47.0888 49.5237 47.4611 49.0645 47.4611Z" clip-rule="evenodd" fill="#0E8784" fill-opacity="1.000000" fill-rule="evenodd"/>
</svg>
