<svg width="40.841919" height="49.072266" viewBox="0 0 40.8419 49.0723" fill="none" xmlns="http://www.w3.org/2000/svg" xmlns:xlink="http://www.w3.org/1999/xlink">
	<desc>
			Created with Pixso.
	</desc>
	<defs/>
	<path id="Combined Shape" d="M5.55957 5.89594C5.65125 5.95703 5.72632 5.98761 5.81519 6.04871C5.89575 6.16815 5.90967 6.30145 5.90125 6.43201C5.90125 6.44037 5.90686 6.45422 5.90686 6.46259C5.89441 6.59979 5.85071 6.74042 5.80847 6.87683C5.71875 7.16583 5.63501 7.4361 5.86523 7.61536C6.04077 7.75305 6.21802 7.88745 6.39343 8.02039C8.09644 9.3111 9.61865 10.4647 7.62903 13.2098C7.03137 14.0351 7.8584 14.0432 8.59778 14.0504C9.04053 14.0546 9.45166 14.0587 9.50684 14.2376C9.46899 15.3677 8.64966 15.7007 7.9375 15.9902C7.23706 16.2749 6.64038 16.5175 6.99292 17.4348C7.48718 18.7216 8.06458 18.1616 8.64954 17.5942C8.91956 17.3324 9.19104 17.069 9.45679 16.9848C9.52625 16.9654 9.87073 17.3848 9.8457 17.5598C9.42371 20.3247 10.4978 19.9235 11.6678 19.4864C12.2845 19.256 12.928 19.0156 13.3929 19.2237C11.1068 22.5403 12.254 23.4459 15.9097 22.9654C19.2834 22.5212 19.9425 25.4555 20.4036 27.5079C20.4701 27.8043 20.5326 28.0824 20.5985 28.3292C21.4097 31.382 18.4568 31.0209 16.3679 30.7515C15.6624 30.6626 14.4402 30.807 14.8124 31.3181C15.1023 31.7151 14.8525 32.1628 14.6194 32.5808C14.2961 33.1604 14.0048 33.683 15.2263 33.9348C17.4485 34.3959 16.7708 35.5376 15.7902 36.6015C14.0513 38.4959 14.3624 40.132 16.693 40.9737C17.4679 41.257 18.2179 41.5959 20.0096 42.3403C16.545 42.194 14.9338 43.9897 13.34 45.7661C12.272 46.9564 11.2118 48.138 9.60681 48.7209C10.9602 49.2649 11.8501 49.0623 12.6821 48.8729C12.9124 48.8205 13.1381 48.7691 13.3679 48.7348C14.938 48.507 16.4069 47.9707 17.8815 47.4323C19.9133 46.6904 21.9563 45.9444 24.2902 45.9959C28.6624 46.0848 33.1541 45.6348 37.418 44.3098C38.254 44.0515 39.4624 43.5265 39.4513 42.3987C39.4374 41.0432 37.379 42.3376 37.0652 40.9681C37.3958 40.5737 37.6152 40.1931 37.9485 39.9653C39.6512 38.7876 41.2429 37.3682 40.7513 35.1376C40.2402 32.7987 38.0707 32.8209 36.2374 32.9932C35.1619 33.0847 35.1187 32.7554 35.032 32.0942C35.0161 31.9733 34.9989 31.8412 34.9735 31.6987C33.9374 25.8043 27.6791 23.1237 26.0902 17.4932C25.9319 16.9293 25.1263 16.3737 24.5013 16.1515C22.0179 15.2681 21.9846 13.9737 23.4985 12.0792C24.2791 11.0959 24.6846 9.82648 25.3958 8.77649C26.8402 6.65704 26.3958 5.70422 23.7762 5.78204C22.3754 5.82404 20.9744 5.81488 19.4689 5.80505L19.4689 5.80505L19.4689 5.80505C18.7833 5.80054 18.0762 5.7959 17.3374 5.7959C17.8735 3.65979 19.3596 3.23206 20.2791 2.26813C21.0707 1.44867 21.6541 -0.254089 19.8263 0.0320435C19.0686 0.152588 18.2487 0.165039 17.4197 0.177612C14.8292 0.21698 12.1509 0.25769 11.0125 3.6015C10.8875 3.95984 10.7596 4.2959 10.6263 4.60706C9.66235 6.76538 8.28467 7.59595 5.82068 6.04871C5.76794 5.96814 5.76514 5.89313 5.66797 5.82367C5.64575 5.83203 5.62073 5.83759 5.59851 5.84595C5.59021 5.86536 5.57629 5.88202 5.56799 5.89594L5.55957 5.89594ZM7.85681 0.879272C5.23181 1.57922 3.71802 2.97369 3.90405 5.79315C2.14575 5.96613 2.65576 6.68121 3.12585 7.34033C3.19934 7.44342 3.27185 7.5451 3.33459 7.64313C3.55688 7.13757 4.04846 6.68201 4.40125 6.15424C4.79846 6.05145 5.19849 5.94312 5.5957 5.84314C5.83252 5.32111 6.23962 4.87976 6.65247 4.43207C7.49414 3.51947 8.35999 2.58069 7.85681 0.879272ZM3.33179 7.64313C3.54846 7.9848 3.66235 8.27924 3.24023 8.42645C3.15967 8.13202 3.22351 7.88202 3.33179 7.64313ZM1.14294 26.1876C0.581787 26.0959 -0.0570068 25.507 0.00402832 24.6598C0.126343 23.1042 4.86792 19.9348 6.97351 20.0598C9.69849 20.2098 9.8291 22.7515 10.9069 24.1042C10.8152 25.9376 9.70679 26.9737 8.51514 26.9792C6.17517 27.0084 3.8175 26.6238 1.48792 26.2438C1.3728 26.225 1.25781 26.2063 1.14294 26.1876Z" clip-rule="evenodd" fill="#0E8784" fill-opacity="1.000000" fill-rule="evenodd"/>
</svg>
